<svg width="217" height="130" viewBox="0 0 217 130" fill="none" xmlns="http://www.w3.org/2000/svg">
<path d="M33.875 3.74219L52.2148 43H45.8867L41.7852 33.625H23.3867L19.2266 43H12.8984L31.2383 3.74219H33.875ZM32.6445 12.6484L25.5547 28.6445H39.6172L32.6445 12.6484ZM72.1953 13.1172C74.8906 13.1172 77.293 13.7617 79.4023 15.0508C81.5508 16.3008 83.2305 18.0977 84.4414 20.4414C85.6914 22.7852 86.3164 25.5781 86.3164 28.8203C86.3164 31.7891 85.6914 34.4062 84.4414 36.6719C83.2305 38.9375 81.5898 40.7148 79.5195 42.0039C77.4883 43.2539 75.2031 43.8789 72.6641 43.8789C70.4375 43.8789 68.4453 43.293 66.6875 42.1211C64.9688 40.9492 63.6016 39.582 62.5859 38.0195V43H57.7812V0.8125H62.5859V17.6289C63.8359 16.2227 65.3203 15.1289 67.0391 14.3477C68.7969 13.5273 70.5156 13.1172 72.1953 13.1172ZM71.3164 17.8633C69.5195 17.8633 67.9375 18.293 66.5703 19.1523C65.2031 19.9727 63.8945 21.1445 62.6445 22.668L62.5859 28.293C62.5859 30.3633 62.9766 32.2188 63.7578 33.8594C64.5781 35.5 65.6914 36.7891 67.0977 37.7266C68.543 38.6641 70.1445 39.1328 71.9023 39.1328C73.8164 39.1328 75.4766 38.6641 76.8828 37.7266C78.2891 36.7891 79.3828 35.5391 80.1641 33.9766C80.9453 32.4141 81.3359 30.6953 81.3359 28.8203C81.3359 26.9062 80.9258 25.1289 80.1055 23.4883C79.3242 21.8086 78.1914 20.4609 76.707 19.4453C75.2227 18.3906 73.4258 17.8633 71.3164 17.8633ZM107.469 13.1172C110.438 13.1172 113.074 13.8203 115.379 15.2266C117.684 16.6328 119.48 18.5078 120.77 20.8516C122.098 23.1953 122.762 25.7539 122.762 28.5273C122.762 31.3008 122.098 33.8594 120.77 36.2031C119.48 38.5078 117.684 40.3633 115.379 41.7695C113.074 43.1758 110.438 43.8789 107.469 43.8789C104.5 43.8789 101.863 43.1758 99.5586 41.7695C97.2539 40.3633 95.4375 38.5078 94.1094 36.2031C92.8203 33.8594 92.1758 31.3008 92.1758 28.5273C92.1758 25.7539 92.8203 23.1953 94.1094 20.8516C95.4375 18.5078 97.2539 16.6328 99.5586 15.2266C101.863 13.8203 104.5 13.1172 107.469 13.1172ZM107.469 17.8047C105.398 17.8047 103.582 18.3125 102.02 19.3281C100.457 20.3047 99.2461 21.6133 98.3867 23.2539C97.5664 24.8555 97.1562 26.6133 97.1562 28.5273C97.1562 30.4023 97.5664 32.1602 98.3867 33.8008C99.2461 35.4023 100.457 36.7109 102.02 37.7266C103.582 38.7031 105.398 39.1914 107.469 39.1914C109.578 39.1914 111.395 38.7031 112.918 37.7266C114.48 36.7109 115.672 35.4023 116.492 33.8008C117.352 32.1602 117.781 30.4023 117.781 28.5273C117.781 26.6133 117.352 24.8555 116.492 23.2539C115.672 21.6133 114.48 20.3047 112.918 19.3281C111.395 18.3125 109.578 17.8047 107.469 17.8047ZM154.637 13.7031V31.0469C154.637 33.625 154.09 35.8516 152.996 37.7266C151.902 39.6016 150.418 41.0469 148.543 42.0625C146.668 43.0781 144.559 43.5859 142.215 43.5859C139.871 43.5859 137.762 43.0781 135.887 42.0625C134.012 41.0469 132.527 39.6016 131.434 37.7266C130.34 35.8516 129.793 33.625 129.793 31.0469V13.7031H134.773V31.0469C134.773 33.5859 135.516 35.5391 137 36.9062C138.523 38.2344 140.262 38.8984 142.215 38.8984C144.168 38.8984 145.887 38.2344 147.371 36.9062C148.895 35.5391 149.656 33.5859 149.656 31.0469V13.7031H154.637ZM171.805 5.26562V13.7031H180.359V18.2148H171.805V35.3828C171.805 36.5938 172.117 37.5508 172.742 38.2539C173.367 38.957 174.324 39.3086 175.613 39.3086C176.785 39.3086 177.762 39.1719 178.543 38.8984C179.324 38.5859 180.008 38.2539 180.594 37.9023V41.8281C179.812 42.4531 178.973 42.9414 178.074 43.293C177.215 43.6836 176.043 43.8789 174.559 43.8789C172.059 43.8789 170.164 43.1367 168.875 41.6523C167.625 40.1289 167 38.1172 167 35.6172V18.2148H161.375V16.8086C163.289 15.9492 164.891 14.543 166.18 12.5898C167.469 10.5977 168.602 8.15625 169.578 5.26562H171.805ZM34.2266 75.625V99.4727C34.2266 102.871 33.4648 105.801 31.9414 108.262C30.457 110.684 28.4258 112.559 25.8477 113.887C23.3086 115.176 20.457 115.82 17.293 115.82C14.1289 115.82 11.2578 115.176 8.67969 113.887C6.10156 112.559 4.05078 110.684 2.52734 108.262C1.04297 105.801 0.300781 102.871 0.300781 99.4727V75.625H8.44531V99.0039C8.44531 102.012 9.24609 104.277 10.8477 105.801C12.4883 107.285 14.6367 108.008 17.293 107.969C19.9102 107.969 22.0391 107.227 23.6797 105.742C25.3203 104.258 26.1406 102.012 26.1406 99.0039V75.625H34.2266ZM61.0039 84.6484C63.3477 84.6484 65.5156 85.2539 67.5078 86.4648C69.5391 87.6367 71.1602 89.375 72.3711 91.6797C73.6211 93.9453 74.2461 96.7188 74.2461 100C74.2461 103.281 73.6211 106.113 72.3711 108.496C71.1602 110.879 69.5 112.715 67.3906 114.004C65.3203 115.254 63.0156 115.879 60.4766 115.879C58.8359 115.879 57.1953 115.488 55.5547 114.707C53.9531 113.887 52.6055 112.871 51.5117 111.66V129.062H44.0703V85.4102H51.5117V90.3906C52.3711 88.7891 53.6211 87.4414 55.2617 86.3477C56.9023 85.2148 58.8164 84.6484 61.0039 84.6484ZM59.1289 92.0898C57.8008 92.0898 56.5508 92.4414 55.3789 93.1445C54.207 93.8086 53.25 94.7656 52.5078 96.0156C51.8047 97.2656 51.4727 98.7695 51.5117 100.527V104.805C52.5664 105.898 53.6992 106.816 54.9102 107.559C56.1602 108.262 57.5078 108.613 58.9531 108.613C60.4766 108.613 61.8047 108.203 62.9375 107.383C64.0703 106.562 64.9492 105.508 65.5742 104.219C66.1992 102.891 66.5117 101.484 66.5117 100C66.5117 97.7734 65.8281 95.8984 64.4609 94.375C63.1328 92.8516 61.3555 92.0898 59.1289 92.0898ZM90.8867 84.6484C92.7227 84.6484 94.4219 84.9219 95.9844 85.4688C97.5469 86.0156 98.7578 86.6406 99.6172 87.3438V93.9062C98.6797 93.2812 97.5273 92.6758 96.1602 92.0898C94.832 91.5039 93.4453 91.2109 92 91.2109C90.5938 91.2109 89.4805 91.5234 88.6602 92.1484C87.8398 92.7734 87.4297 93.5156 87.4297 94.375C87.4297 95 87.6641 95.5859 88.1328 96.1328C88.6016 96.6406 89.5 97.0898 90.8281 97.4805L94.168 98.5938C98.6602 99.9219 100.906 102.52 100.906 106.387C100.906 108.223 100.379 109.863 99.3242 111.309C98.3086 112.715 96.9219 113.828 95.1641 114.648C93.4453 115.469 91.5312 115.879 89.4219 115.879C87.4297 115.879 85.4961 115.566 83.6211 114.941C81.7461 114.316 80.3203 113.633 79.3438 112.891V106.387C80.0859 106.895 80.9844 107.383 82.0391 107.852C83.0938 108.32 84.1875 108.711 85.3203 109.023C86.4531 109.297 87.4883 109.434 88.4258 109.434C89.9102 109.434 91.043 109.18 91.8242 108.672C92.6445 108.125 93.0547 107.363 93.0547 106.387C93.0547 105.645 92.7227 105.059 92.0586 104.629C91.3945 104.199 90.418 103.77 89.1289 103.34L85.4961 102.051C83.2305 101.309 81.668 100.254 80.8086 98.8867C79.9492 97.5195 79.5195 95.8984 79.5195 94.0234C79.5195 92.1484 79.9883 90.5273 80.9258 89.1602C81.9023 87.7539 83.25 86.6602 84.9688 85.8789C86.6875 85.0586 88.6602 84.6484 90.8867 84.6484ZM120.711 84.6484C122.898 84.6484 124.695 85 126.102 85.7031C127.508 86.4062 128.621 87.0898 129.441 87.7539V94.6094C128.426 93.8672 127.273 93.2422 125.984 92.7344C124.734 92.2266 123.191 91.9727 121.355 91.9727C119.871 91.9727 118.484 92.3438 117.195 93.0859C115.945 93.8281 114.949 94.8242 114.207 96.0742C113.465 97.3242 113.094 98.75 113.094 100.352C113.094 102.773 113.875 104.766 115.438 106.328C117 107.891 118.973 108.672 121.355 108.672C123.191 108.672 124.734 108.438 125.984 107.969C127.273 107.461 128.426 106.836 129.441 106.094V112.891C128.621 113.594 127.508 114.277 126.102 114.941C124.695 115.566 122.898 115.879 120.711 115.879C117.703 115.879 115.027 115.176 112.684 113.77C110.379 112.324 108.543 110.43 107.176 108.086C105.848 105.703 105.184 103.125 105.184 100.352C105.184 98.2812 105.555 96.3086 106.297 94.4336C107.078 92.5586 108.172 90.8984 109.578 89.4531C110.984 87.9688 112.625 86.7969 114.5 85.9375C116.414 85.0781 118.484 84.6484 120.711 84.6484ZM147.781 84.6484C149.383 84.6484 151.004 85.0195 152.645 85.7617C154.285 86.5039 155.652 87.5 156.746 88.75V85.4102H164.188V115H156.746V110.02C155.887 111.621 154.637 113.008 152.996 114.18C151.355 115.312 149.441 115.879 147.254 115.879C144.871 115.879 142.664 115.273 140.633 114.062C138.641 112.852 137.039 111.094 135.828 108.789C134.617 106.484 134.012 103.691 134.012 100.41C134.012 97.1289 134.617 94.3164 135.828 91.9727C137.078 89.6289 138.738 87.832 140.809 86.582C142.918 85.293 145.242 84.6484 147.781 84.6484ZM149.305 91.9141C147.742 91.9141 146.395 92.3242 145.262 93.1445C144.168 93.9258 143.309 94.9609 142.684 96.25C142.059 97.5391 141.746 98.9258 141.746 100.41C141.746 102.637 142.41 104.531 143.738 106.094C145.105 107.656 146.902 108.438 149.129 108.438C150.457 108.438 151.688 108.086 152.82 107.383C153.992 106.68 154.93 105.703 155.633 104.453C156.375 103.164 156.746 101.621 156.746 99.8242V95.6055C155.691 94.4727 154.539 93.5742 153.289 92.9102C152.078 92.2461 150.75 91.9141 149.305 91.9141ZM180.77 72.8125V115H173.328V72.8125H180.77ZM202.801 84.6484C205.691 84.6484 208.172 85.2734 210.242 86.5234C212.352 87.7734 213.953 89.5117 215.047 91.7383C216.18 93.9258 216.746 96.4648 216.746 99.3555V102.52H195.301C195.691 104.512 196.668 106.113 198.23 107.324C199.793 108.535 201.707 109.141 203.973 109.141C206.121 109.141 208.074 108.711 209.832 107.852C211.59 106.992 212.996 106.113 214.051 105.215L213.992 112.129C213.055 112.949 211.648 113.789 209.773 114.648C207.938 115.469 205.906 115.879 203.68 115.879C200.75 115.879 198.074 115.215 195.652 113.887C193.27 112.559 191.355 110.742 189.91 108.438C188.504 106.133 187.801 103.496 187.801 100.527C187.801 97.6367 188.445 95 189.734 92.6172C191.023 90.2344 192.801 88.3203 195.066 86.875C197.332 85.3906 199.91 84.6484 202.801 84.6484ZM202.625 91.1523C200.789 91.1523 199.246 91.7188 197.996 92.8516C196.746 93.9844 195.887 95.5078 195.418 97.4219H209.598C209.441 95.3125 208.66 93.75 207.254 92.7344C205.848 91.6797 204.305 91.1523 202.625 91.1523Z" fill="white"/>
</svg>
