<?xml version="1.0" encoding="utf-8"?>
<!-- Generator: Adobe Illustrator 19.0.0, SVG Export Plug-In . SVG Version: 6.00 Build 0)  -->
<svg version="1.1" id="Layer_1" xmlns="http://www.w3.org/2000/svg" xmlns:xlink="http://www.w3.org/1999/xlink" x="0px" y="0px"
	 viewBox="0 0 523 152" style="enable-background:new 0 0 523 152;" xml:space="preserve">
<style type="text/css">
	.st0{display:none;fill:#FEFEFE;}
	.st1{fill:#0084FE;}
	.st2{fill:#0083FE;}
	.st3{fill:#4DB6FE;}
	.st4{fill:#019DFE;}
	.st5{fill:#019EFE;}
	.st6{fill:#029EFE;}
	.st7{fill:#4CB6FE;}
	.st8{fill:#FEFEFE;}
</style>
<g>
	<path class="st0" d="M259.1,97.1c-86.3,0-172.5,0-258.8,0.1c-2.1,0-2.6-0.5-2.6-2.6c0.1-31.6,0.1-63.2,0-94.8C-2.4-2.1-2-2.5,0-2.5
		c172.9,0.1,345.8,0.1,518.8,0c1.9,0,2.3,0.4,2.3,2.3c-0.1,31.7-0.1,63.4,0,95c0,1.9-0.4,2.3-2.3,2.3
		C432.2,97.1,345.6,97.1,259.1,97.1z"/>
	<path class="st1" d="M71.2,33.9c0,7.3,0,14.5,0,21.8C71.1,72.5,58,86.3,40.9,87.4c-16,1-30.6-11-32.9-27.3
		c-0.3-1.9-0.3-3.8-0.3-5.6c0-14.5,0-29-0.1-43.5c0-2.2,0.6-2.9,2.8-2.8c4.2,0.2,8.5,0.2,12.7,0c2.5-0.1,2.9,0.8,2.9,3.1
		C26,25.7,26,40.4,26.1,55c0,8.6,6.4,14.6,14.6,13.9c6.6-0.6,12-6.3,12-13.1c0-14.9,0.1-29.8-0.1-44.7c0-2.6,0.8-3.2,3.2-3.1
		c4,0.2,8.1,0.3,12.2,0c2.9-0.2,3.4,0.9,3.3,3.5C71.1,19,71.2,26.4,71.2,33.9z"/>
	<path class="st2" d="M264.4,7c14.8,0.2,24.9,5.3,33,14.6c1.5,1.7,1.4,2.6-0.6,3.9c-3.6,2.4-7.2,4.9-10.5,7.6
		c-1.9,1.6-2.7,0.7-4-0.7c-6-6.3-13.3-8.3-21.7-6.1c-8,2.1-13,7.4-15.2,15.2c-2.6,9.4,1.4,19.2,9.6,24.2c8.5,5.2,18.8,4.3,26.3-2.7
		c1.9-1.8,2.8-1.5,4.5,0c3.2,2.9,6.6,5.6,10.1,8.2c1.4,1.1,1.3,1.8,0.2,3.1c-15,17-43.2,17.4-58.8,0.7c-19-20.3-13.2-52.1,11.8-64.2
		C254.8,8.1,260.7,7,264.4,7z"/>
	<path class="st2" d="M185.9,7c9.2,0.2,17.5,2.9,24.9,8.6c1.4,1.1,1.7,1.9,0.5,3.4c-2.7,3.4-5.4,6.8-7.9,10.3
		c-1.1,1.5-1.8,1.3-3.1,0.3c-3.2-2.6-6.7-4.6-10.7-5.5c-0.5-0.1-1.1-0.3-1.6-0.4c-4.2-0.6-7.6,0.9-8.6,3.7c-1.1,3,0.7,6.2,4.6,8.4
		c4.6,2.6,9.9,3.5,14.7,5.7c5.5,2.5,10.8,5.2,13.5,11c4.5,9.7,3.7,24.7-12,31.8c-15.2,6.8-31.1,1.7-41.6-7.9
		c-1.2-1.1-1.4-1.9-0.3-3.2c2.9-3.3,5.6-6.6,8.3-10c1.2-1.6,1.9-1.2,3.2-0.1c5.1,4.5,10.8,7.8,18,7.5c1.6-0.1,3.2-0.4,4.6-1.3
		c3.2-1.9,3.6-6.2,0.8-9c-2.8-2.7-6.4-3.8-10-5.1c-4.3-1.6-8.6-3.4-12.6-5.7c-14.9-8.5-14-29.7,0.2-38.5
		C175.5,8.1,180.5,6.9,185.9,7z"/>
	<path class="st1" d="M361.5,70c-1.4,2.3-2.6,4.2-3.8,6c-9.1,13.2-37.3,16.8-46.5-4.5c-7.1-16.4-7.3-33.3,1.4-49.3
		c4.6-8.3,11.9-13.4,22-13.6c7.1-0.1,12.3,2.9,16.1,8.7c3.1,4.6,5,9.8,7.2,15.7c1.5-6.9,3-13.1,4.1-19.3c0.5-2.4,1.4-3.3,3.9-3.1
		c2.7,0.2,5.5,0.2,8.2,0c2-0.1,2.4,0.6,2,2.5c-1.9,8.3-3.8,16.7-5.7,25.1c-1.7,7.2-3.4,14.5-5.1,21.7c-0.8,3.5,3.1,13.1,6.1,14.9
		c3.1,1.9,7.4,0.4,9-3.1c0.7-1.5,1-3,1.1-4.7c0-1.1,0.7-1.4,1.7-1.4c1.1,0,1.6,0.5,1.5,1.5c-0.4,5.8-1.3,11.5-5.1,16.2
		c-4.2,5.2-11.3,4.2-13.9-2C364,77.8,362.9,74.2,361.5,70z"/>
	<path class="st1" d="M106.9,8.2c7,0.2,14.1-1,21,1.1c10.1,3.1,17.8,12.5,18.5,22.4c0.9,11.9-4.5,21.5-14.8,26.5
		c-1.9,0.9-3.8,2.1-6.1,2.1c-5.7,0.7-11.4,0.6-17.1,0.5c-1.4,0-2.2-0.6-2.3-2c-0.2-4.8-0.8-9.5,0.4-14.3c1-1.2,2.4-0.9,3.7-0.9
		c3.9-0.2,7.7,0.3,11.5-0.2c3.9-1.4,6.8-3.7,7-8.2c0.2-4.7-2-7.6-7.1-9.6c-4-0.4-7.9,0-11.9-0.2c-3-0.1-3.7-0.7-3.8-3.7
		c-0.1-3.6-0.1-7.2,0-10.7C106,10.1,106,9,106.9,8.2z"/>
	<path class="st1" d="M397.7,8.3c5.8-0.2,11.7-0.3,17.5,0c0.5,0.8,0.3,1.7,0.3,2.5c0,18.6,0,37.3,0,55.9c0,3.1-0.3,3.4-3.3,3.5
		c-3.9,0.1-7.7,0.1-11.6,0c-1,0-2.1,0-2.9-0.8c-0.4-0.7-0.3-1.5-0.3-2.2c0-18.9,0-37.9,0-56.8C397.4,9.8,397.2,9,397.7,8.3z"/>
	<path class="st3" d="M397.7,8.3c0,20.4,0.1,40.7,0.1,61.1c0.8,1,0.8,2.3,0.8,3.5c0,2.7,0,5.4,0,8.2c0,3.8,0.1,3.9,4,3.9
		c2.6,0,5.3,0,7.9,0c4.4,0,4.4,0,4.4-4.6c0-2.5,0-5.1,0-7.6c0-1.2-0.1-2.5,0.9-3.4c10,0,20,0.1,30,0c2.3,0,2.9,0.6,2.8,2.9
		c-0.2,3.9-0.1,7.7,0,11.6c0.1,1.9-0.6,2.5-2.4,2.5c-4-0.1-7.9,0-11.9,0c-11.3,0.1-22.6,0.1-33.9,0.2c-2.4,0-3.4-0.4-3.4-3.2
		c0.1-24.1,0.1-48.2,0.1-72.4C397.1,10.1,396.7,9,397.7,8.3z"/>
	<path class="st1" d="M480.3,8.3c10.2,0,20.5-0.1,30.7-0.1c0.8,0,1.9-0.1,1.8,1.1c-0.2,5.1,0.6,10.3-0.4,15.4
		c-0.6,0.4-1.3,0.3-1.9,0.3c-9.5,0-19-0.1-28.6,0.1c-2.2,0-3.2-0.7-3.2-2.8c-0.1-3.8-0.1-7.5,0-11.3C478.9,9.9,478.7,8.5,480.3,8.3z
		"/>
	<path class="st3" d="M120.6,61c-3.5,0.7-7.1,0.3-10.7,0.3c-2.3,0-3.1,0.5-3.1,3c0.2,6.4,0,12.8,0.1,19.2c0.1,2.3-0.8,2.9-2.9,2.8
		c-4.3-0.1-8.7-0.1-13,0c-1.9,0.1-2.5-0.6-2.4-2.4c0.1-1.9,0-3.8,0-5.6c-0.1-10.4-0.3-20.9-0.4-31.3c0-1-0.3-2.1,0.4-3
		c0.1,0.1,0.3,0.2,0.4,0.4c1.2,3.2,0.4,6.5,0.6,9.8c0,0.6,0,1.1,0,1.7c0,4.2,0.1,4.4,4.2,4.3c8.5-0.3,16.9,1.1,25.4,0.7
		C119.7,60.6,120.2,60.6,120.6,61z"/>
	<path class="st4" d="M480.3,69.4c11,0,22,0.1,33-0.1c2.1,0,2.7,0.6,2.7,2.7c-0.2,3.8,0,7.7-0.1,11.6c0,0.8,0.4,1.7-0.5,2.3
		c-1-1.1-0.9-2.4-0.9-3.7c0-2.9,0-5.8,0-8.8c0-1.6-0.6-2.5-2.3-2.5c-9.8,0-19.6-0.1-29.4,0c-1.4,0-2.1,0.7-2.1,2.1
		c-0.1,3.2,0,6.4,0,9.6c0,1.7,1,2.3,2.5,2.3c2.8,0,5.6,0,8.5,0c6.6,0,13.2,0,19.8,0c1.4,0,2.9-0.1,4,0.9c-0.7,0.6-1.6,0.3-2.4,0.3
		c-16.1,0.1-32.2,0-48.3,0.2c-2.8,0-3.5-0.8-3.4-3.5c0.3-4.5,0.2-9,0.2-13.5c0.7-0.5,1.5-0.8,2.3-0.8c4.6-0.1,9.2-0.1,13.8,0
		C478.6,68.6,479.5,69,480.3,69.4z"/>
	<path class="st3" d="M122.7,43.9c-0.8,1-1.9,0.6-2.9,0.6c-4.3,0-8.6,0-12.9,0c-6,0.2-12,0.9-18-0.4c-0.1-0.1-0.2-0.2-0.3-0.3
		c0-6.2,0-12.4,0.1-18.6c0.2-0.2,0.4-0.5,0.7-0.5c5.8-0.6,11.6-1,17.4,0.3c1.1,1,0.9,2.4,0.9,3.7c0.1,3.8,0.1,7.5,0,11.3
		c0,2.1,0.8,3.1,3,3c2.8-0.1,5.6-0.1,8.5,0C120.4,43.1,121.7,43,122.7,43.9z"/>
	<path class="st4" d="M461.6,57c-0.3-5.7-0.4-11.3,0-17c0.1-0.1,0.3-0.3,0.4-0.3c5.9-0.8,11.9-1.2,17.8,0.2c8.1,0,16.2,0.2,24.3,0.1
		c2.1,0,2.8,0.5,2.7,2.6c-0.2,3.9-0.1,7.9,0,11.8c0.1,2-0.5,2.6-2.5,2.6c-8-0.1-16,0-24,0c-1.1,0.7-2.2,0.9-3.5,0.9c-4,0-8,0-12.1,0
		C463.6,57.9,462.5,57.8,461.6,57z"/>
	<path class="st5" d="M480.3,8.3c-1.3,1.8-0.5,3.8-0.6,5.7c-0.1,2.7,0.1,5.5-0.1,8.2c-0.1,2,0.7,2.6,2.6,2.5c10.1-0.1,20.1,0,30.2,0
		c-0.8,0.7-1.8,0.4-2.7,0.4c-8.9,0-17.8,0-26.7,0c-1.1,0-2.2,0.2-3.3,0.2c-0.8,0.6-1.7,0.8-2.6,0.8c-4.3,0.1-8.6,0.1-12.9,0
		c-0.9,0-1.9-0.2-2.6-0.9c-0.6-5.2-0.1-10.5-0.3-15.8c0-1.1,0.4-1.6,1.5-1.5C468.7,8.1,474.5,7.6,480.3,8.3z"/>
	<path class="st6" d="M106.9,25.3c-6,0-12.1,0-18.1,0c-0.8-5.3-0.2-10.7-0.3-16c0-0.9,0.4-1.4,1.4-1.4c5.7,0.1,11.4-0.3,17.1,0.3
		c0,4.7,0.1,9.4-0.1,14.1c0,1.9,0.6,2.5,2.4,2.4c3.6-0.1,7.2,0,10.7,0c0.9,0,1.9-0.3,2.7,0.5c-0.2,0.3-0.5,0.6-0.9,0.6
		c-4.7,0.6-9.3,0.5-14,0C107.5,25.8,107.2,25.5,106.9,25.3z"/>
	<path class="st5" d="M415.8,69.3c0,4.7-0.1,9.4,0,14.1c0,1.8-0.6,2.5-2.4,2.4c-4.4-0.1-8.8-0.1-13.3,0c-1.8,0-2.5-0.4-2.5-2.4
		c0.1-4.7,0.1-9.4,0.1-14.1c4.9,0,9.8-0.1,14.7,0.1c2.4,0.1,2.8-0.8,2.8-2.9c-0.1-19.4,0-38.8,0-58.2c1.1,0.8,0.5,1.9,0.5,2.8
		C415.8,30.6,415.8,49.9,415.8,69.3z"/>
	<path class="st4" d="M88.9,44.1c5.3,0,10.5-0.1,15.8-0.1c0.8,0,1.5,0.2,2.1,0.6c0,4.4,0.1,8.8-0.1,13.2c-0.1,2.2,0.7,2.7,2.8,2.7
		c5.3-0.1,10.7,0,16,0c-1.6,0.7-3.3,0.6-5,0.6c-9.6,0-19.1-0.1-28.7,0c-2.5,0-3.3-0.6-3.1-3.1C89,53.3,88.9,48.7,88.9,44.1z"/>
	<path class="st3" d="M461.6,25.3c6,0,12.1,0,18.1,0.1c0,4.9,0,9.7,0.1,14.6c-6.1,0-12.2,0.1-18.2,0.1
		C461.6,35.1,461.6,30.2,461.6,25.3z"/>
	<path class="st7" d="M461.6,57c6.2,0,12.5,0,18.7,0c-0.8,4.1-0.9,8.3,0,12.4c-6.3,0-12.5,0-18.8,0C461.5,65.2,461.6,61.1,461.6,57z
		"/>
	<path class="st8" d="M321.4,50.9c0.1-8.8,0.4-16,2.2-22.9c0.8-3.1,1.9-6.1,3.9-8.7c4.3-5.3,11.4-5.8,16.4-1
		c3.1,2.9,4.9,6.6,6.7,10.4c1.9,4,3.2,8.2,4.6,12.4c0.2,0.6,0.4,1.3,0.2,1.9C353.2,53,352,63.4,347,72.7c-2.1,3.8-4.5,7.5-9.2,8.6
		c-4.4,1.1-8.2-0.5-10.8-4.2c-3.4-4.8-4.2-10.4-4.9-16C321.6,57.2,321.5,53.2,321.4,50.9z"/>
	<path class="st0" d="M106.9,25.3c5.3-0.4,10.6-0.2,15.8-0.1c7.1,3.3,9.1,9.8,4.8,15.5c-1.3,1.7-3,2.4-4.9,3.2c-4.5,0-9,0-13.5,0.1
		c-1.9,0.1-2.4-0.6-2.3-2.4C106.9,36.2,106.9,30.7,106.9,25.3z"/>
	<path class="st1" d="M515.4,85.9c-10.9,0-21.8-0.1-32.8,0c-2.4,0-3.1-0.7-3-3c0.2-3.6,0.1-7.2,0-10.7c0-1.6,0.5-2.1,2.1-2.1
		c10.5,0,20.9,0.1,31.4,0c1.8,0,2.2,0.7,2.2,2.4C515.3,76.8,515.4,81.4,515.4,85.9C515.4,85.9,515.4,85.9,515.4,85.9z"/>
	<path class="st1" d="M492.8,56.4c-3.7,0-7.3,0-11,0c-1.5,0-2.2-0.5-2.2-2.1c0.1-3.9,0.1-7.9,0-11.8c0-1.5,0.6-1.9,2-1.9
		c7.5,0,15,0,22.6,0c1.4,0,2,0.4,2,1.9c-0.1,3.9-0.1,7.9,0,11.8c0,1.6-0.6,2.1-2.2,2.1C500.4,56.3,496.6,56.4,492.8,56.4z"/>
</g>
<g>
	<path class="st1" d="M42.4,141.2L36.5,118h3.2l2.7,11.7c0.7,2.9,1.3,5.8,1.7,8h0.1c0.4-2.3,1.1-5,1.9-8l3.1-11.7h3.1l2.8,11.7
		c0.7,2.7,1.3,5.5,1.6,7.9h0.1c0.5-2.5,1.1-5.1,1.9-8l3.1-11.7h3.1l-6.6,23.2h-3.1l-2.9-12.1c-0.7-3-1.2-5.2-1.5-7.6h-0.1
		c-0.4,2.3-0.9,4.6-1.8,7.6l-3.3,12.1H42.4z"/>
	<path class="st1" d="M67.4,116.8h3v10.4h0.1c0.5-0.9,1.2-1.6,2.2-2.1c0.9-0.5,2-0.9,3.1-0.9c2.2,0,5.8,1.4,5.8,7.1v9.9h-3v-9.5
		c0-2.7-1-4.9-3.8-4.9c-2,0-3.5,1.4-4.1,3c-0.2,0.4-0.2,0.9-0.2,1.4v10h-3V116.8z"/>
	<path class="st1" d="M88.1,133.4c0.1,4.1,2.7,5.8,5.7,5.8c2.2,0,3.5-0.4,4.6-0.9l0.5,2.2c-1.1,0.5-2.9,1-5.5,1
		c-5.1,0-8.2-3.4-8.2-8.4c0-5,3-9,7.8-9c5.4,0,6.9,4.8,6.9,7.8c0,0.6-0.1,1.1-0.1,1.4H88.1z M97,131.2c0-1.9-0.8-4.9-4.2-4.9
		c-3.1,0-4.4,2.8-4.6,4.9H97z"/>
	<path class="st1" d="M103.7,129.7c0-2,0-3.6-0.1-5.2h2.6l0.1,3.3h0.1c0.8-2.2,2.6-3.6,4.6-3.6c0.3,0,0.6,0,0.9,0.1v2.9
		c-0.3-0.1-0.6-0.1-1-0.1c-2.1,0-3.6,1.6-4.1,3.9c-0.1,0.4-0.1,0.9-0.1,1.4v8.9h-3V129.7z"/>
	<path class="st1" d="M116.2,133.4c0.1,4.1,2.7,5.8,5.7,5.8c2.2,0,3.5-0.4,4.6-0.9l0.5,2.2c-1.1,0.5-2.9,1-5.5,1
		c-5.1,0-8.2-3.4-8.2-8.4c0-5,3-9,7.8-9c5.4,0,6.9,4.8,6.9,7.8c0,0.6-0.1,1.1-0.1,1.4H116.2z M125.1,131.2c0-1.9-0.8-4.9-4.2-4.9
		c-3.1,0-4.4,2.8-4.6,4.9H125.1z"/>
	<path class="st1" d="M142.7,119.8v4.8h4.3v2.3h-4.3v9c0,2.1,0.6,3.2,2.3,3.2c0.8,0,1.4-0.1,1.8-0.2l0.1,2.3
		c-0.6,0.2-1.5,0.4-2.7,0.4c-1.4,0-2.5-0.4-3.3-1.3c-0.9-0.9-1.2-2.4-1.2-4.3v-9.1h-2.6v-2.3h2.6v-4L142.7,119.8z"/>
	<path class="st1" d="M165.3,132.7c0,6.1-4.3,8.8-8.3,8.8c-4.5,0-8-3.3-8-8.6c0-5.6,3.6-8.8,8.2-8.8
		C162,124.2,165.3,127.6,165.3,132.7z M152.1,132.9c0,3.6,2.1,6.4,5,6.4c2.9,0,5-2.7,5-6.5c0-2.8-1.4-6.4-5-6.4
		S152.1,129.7,152.1,132.9z"/>
	<path class="st1" d="M183.4,116.8v20.1c0,1.5,0,3.2,0.1,4.3h-2.7l-0.1-2.9h-0.1c-0.9,1.9-3,3.3-5.7,3.3c-4,0-7.1-3.4-7.1-8.4
		c0-5.5,3.4-8.9,7.5-8.9c2.5,0,4.3,1.2,5,2.5h0.1v-9.9H183.4z M180.4,131.3c0-0.4,0-0.9-0.1-1.3c-0.4-1.9-2.1-3.5-4.4-3.5
		c-3.1,0-5,2.7-5,6.4c0,3.4,1.6,6.1,4.9,6.1c2,0,3.9-1.3,4.4-3.6c0.1-0.4,0.1-0.8,0.1-1.3V131.3z"/>
	<path class="st1" d="M197.7,141.2l-0.2-2.1h-0.1c-0.9,1.3-2.7,2.5-5.1,2.5c-3.4,0-5.1-2.4-5.1-4.8c0-4,3.6-6.2,10-6.2v-0.3
		c0-1.4-0.4-3.8-3.8-3.8c-1.5,0-3.2,0.5-4.3,1.2l-0.7-2c1.4-0.9,3.4-1.5,5.5-1.5c5.1,0,6.3,3.5,6.3,6.8v6.2c0,1.4,0.1,2.9,0.3,4
		H197.7z M197.2,132.7c-3.3-0.1-7,0.5-7,3.7c0,2,1.3,2.9,2.9,2.9c2.2,0,3.5-1.4,4-2.8c0.1-0.3,0.2-0.7,0.2-1V132.7z"/>
	<path class="st1" d="M205.8,124.6l3.6,9.8c0.4,1.1,0.8,2.4,1.1,3.4h0.1c0.3-1,0.7-2.3,1.1-3.5l3.3-9.8h3.2l-4.5,11.8
		c-2.2,5.7-3.6,8.6-5.7,10.4c-1.5,1.3-3,1.8-3.7,2l-0.8-2.5c0.8-0.2,1.8-0.7,2.6-1.5c0.8-0.7,1.9-1.8,2.5-3.4
		c0.1-0.3,0.2-0.5,0.2-0.7s-0.1-0.4-0.2-0.8l-6.1-15.3H205.8z"/>
	<path class="st1" d="M228.2,129.1c0-1.7,0-3.1-0.1-4.5h2.6l0.1,2.7h0.1c0.9-1.6,2.5-3.1,5.2-3.1c2.3,0,4,1.4,4.7,3.3h0.1
		c0.5-0.9,1.2-1.6,1.9-2.2c1-0.8,2.1-1.2,3.7-1.2c2.2,0,5.5,1.4,5.5,7.2v9.8h-3v-9.4c0-3.2-1.2-5.1-3.6-5.1c-1.7,0-3.1,1.3-3.6,2.7
		c-0.1,0.4-0.2,1-0.2,1.5v10.3h-3v-10c0-2.6-1.2-4.6-3.5-4.6c-1.9,0-3.3,1.5-3.7,3c-0.2,0.4-0.2,1-0.2,1.5v10h-3V129.1z"/>
	<path class="st1" d="M258.5,133.4c0.1,4.1,2.7,5.8,5.7,5.8c2.2,0,3.5-0.4,4.6-0.9l0.5,2.2c-1.1,0.5-2.9,1-5.5,1
		c-5.1,0-8.2-3.4-8.2-8.4c0-5,3-9,7.8-9c5.4,0,6.9,4.8,6.9,7.8c0,0.6-0.1,1.1-0.1,1.4H258.5z M267.4,131.2c0-1.9-0.8-4.9-4.2-4.9
		c-3.1,0-4.4,2.8-4.6,4.9H267.4z"/>
	<path class="st1" d="M275.7,133.4c0.1,4.1,2.7,5.8,5.7,5.8c2.2,0,3.5-0.4,4.6-0.9l0.5,2.2c-1.1,0.5-2.9,1-5.5,1
		c-5.1,0-8.2-3.4-8.2-8.4c0-5,3-9,7.8-9c5.4,0,6.9,4.8,6.9,7.8c0,0.6-0.1,1.1-0.1,1.4H275.7z M284.6,131.2c0-1.9-0.8-4.9-4.2-4.9
		c-3.1,0-4.4,2.8-4.6,4.9H284.6z"/>
	<path class="st1" d="M294.9,119.8v4.8h4.3v2.3h-4.3v9c0,2.1,0.6,3.2,2.3,3.2c0.8,0,1.4-0.1,1.8-0.2l0.1,2.3
		c-0.6,0.2-1.5,0.4-2.7,0.4c-1.4,0-2.5-0.4-3.3-1.3c-0.9-0.9-1.2-2.4-1.2-4.3v-9.1h-2.6v-2.3h2.6v-4L294.9,119.8z"/>
	<path class="st1" d="M302.2,138.1c0.9,0.6,2.5,1.2,4,1.2c2.2,0,3.2-1.1,3.2-2.5c0-1.4-0.9-2.2-3.1-3.1c-3-1.1-4.4-2.7-4.4-4.7
		c0-2.7,2.2-4.9,5.7-4.9c1.7,0,3.2,0.5,4.1,1l-0.8,2.2c-0.7-0.4-1.9-1-3.4-1c-1.8,0-2.8,1-2.8,2.3c0,1.4,1,2,3.2,2.8
		c2.9,1.1,4.4,2.5,4.4,5c0,2.9-2.3,5-6.2,5c-1.8,0-3.5-0.4-4.7-1.1L302.2,138.1z"/>
	<path class="st1" d="M327.2,119.8v4.8h4.3v2.3h-4.3v9c0,2.1,0.6,3.2,2.3,3.2c0.8,0,1.4-0.1,1.8-0.2l0.1,2.3
		c-0.6,0.2-1.5,0.4-2.7,0.4c-1.4,0-2.5-0.4-3.3-1.3c-0.9-0.9-1.2-2.4-1.2-4.3v-9.1h-2.6v-2.3h2.6v-4L327.2,119.8z"/>
	<path class="st1" d="M349.7,132.7c0,6.1-4.3,8.8-8.3,8.8c-4.5,0-8-3.3-8-8.6c0-5.6,3.6-8.8,8.2-8.8
		C346.5,124.2,349.7,127.6,349.7,132.7z M336.5,132.9c0,3.6,2.1,6.4,5,6.4c2.9,0,5-2.7,5-6.5c0-2.8-1.4-6.4-5-6.4
		C338.1,126.4,336.5,129.7,336.5,132.9z"/>
	<path class="st1" d="M353.5,129.1c0-1.7,0-3.1-0.1-4.5h2.6l0.1,2.7h0.1c0.9-1.6,2.5-3.1,5.2-3.1c2.3,0,4,1.4,4.7,3.3h0.1
		c0.5-0.9,1.2-1.6,1.9-2.2c1-0.8,2.1-1.2,3.7-1.2c2.2,0,5.5,1.4,5.5,7.2v9.8h-3v-9.4c0-3.2-1.2-5.1-3.6-5.1c-1.7,0-3.1,1.3-3.6,2.7
		c-0.1,0.4-0.2,1-0.2,1.5v10.3h-3v-10c0-2.6-1.2-4.6-3.5-4.6c-1.9,0-3.3,1.5-3.7,3c-0.2,0.4-0.2,1-0.2,1.5v10h-3V129.1z"/>
	<path class="st1" d="M382.2,129.1c0-1.7,0-3.1-0.1-4.5h2.6l0.1,2.7h0.1c0.9-1.6,2.5-3.1,5.2-3.1c2.3,0,4,1.4,4.7,3.3h0.1
		c0.5-0.9,1.2-1.6,1.9-2.2c1-0.8,2.1-1.2,3.7-1.2c2.2,0,5.5,1.4,5.5,7.2v9.8h-3v-9.4c0-3.2-1.2-5.1-3.6-5.1c-1.7,0-3.1,1.3-3.6,2.7
		c-0.1,0.4-0.2,1-0.2,1.5v10.3h-3v-10c0-2.6-1.2-4.6-3.5-4.6c-1.9,0-3.3,1.5-3.7,3c-0.2,0.4-0.2,1-0.2,1.5v10h-3V129.1z"/>
	<path class="st1" d="M425.9,132.7c0,6.1-4.3,8.8-8.3,8.8c-4.5,0-8-3.3-8-8.6c0-5.6,3.6-8.8,8.2-8.8
		C422.6,124.2,425.9,127.6,425.9,132.7z M412.7,132.9c0,3.6,2.1,6.4,5,6.4c2.9,0,5-2.7,5-6.5c0-2.8-1.4-6.4-5-6.4
		C414.2,126.4,412.7,129.7,412.7,132.9z"/>
	<path class="st1" d="M429.7,129.7c0-2,0-3.6-0.1-5.2h2.6l0.1,3.3h0.1c0.8-2.2,2.6-3.6,4.6-3.6c0.3,0,0.6,0,0.9,0.1v2.9
		c-0.3-0.1-0.6-0.1-1-0.1c-2.1,0-3.6,1.6-4.1,3.9c-0.1,0.4-0.1,0.9-0.1,1.4v8.9h-3V129.7z"/>
	<path class="st1" d="M455.6,132.7c0,6.1-4.3,8.8-8.3,8.8c-4.5,0-8-3.3-8-8.6c0-5.6,3.6-8.8,8.2-8.8
		C452.4,124.2,455.6,127.6,455.6,132.7z M442.4,132.9c0,3.6,2.1,6.4,5,6.4c2.9,0,5-2.7,5-6.5c0-2.8-1.4-6.4-5-6.4
		C444,126.4,442.4,129.7,442.4,132.9z"/>
	<path class="st1" d="M460.4,124.6l2.2,8.4c0.5,1.9,0.9,3.6,1.2,5.3h0.1c0.4-1.7,0.9-3.5,1.5-5.3l2.7-8.5h2.5l2.6,8.3
		c0.6,2,1.1,3.7,1.5,5.4h0.1c0.3-1.7,0.7-3.4,1.3-5.4l2.4-8.3h3l-5.4,16.6h-2.7l-2.5-7.9c-0.6-1.9-1.1-3.5-1.5-5.5h-0.1
		c-0.4,2-0.9,3.7-1.5,5.5l-2.7,7.9h-2.7l-5-16.6H460.4z"/>
</g>
</svg>
