<?xml version="1.0" encoding="utf-8"?>
<!-- Generator: Adobe Illustrator 19.0.0, SVG Export Plug-In . SVG Version: 6.00 Build 0)  -->
<svg version="1.1" id="Layer_1" xmlns="http://www.w3.org/2000/svg" xmlns:xlink="http://www.w3.org/1999/xlink" x="0px" y="0px"
	 viewBox="-65 166 481 461" style="enable-background:new -65 166 481 461;" xml:space="preserve">
<style type="text/css">
	.st0{fill:url(#SVGID_1_);}
	.st1{fill:url(#SVGID_2_);}
	.st2{fill:#FFFFFF;}
</style>
<linearGradient id="SVGID_1_" gradientUnits="userSpaceOnUse" x1="183.5417" y1="605.0624" x2="136.8597" y2="194.2381" gradientTransform="matrix(1 0 0 -1 0 794)">
	<stop  offset="0" style="stop-color:#0084FF"/>
	<stop  offset="1" style="stop-color:#016FD6;stop-opacity:0"/>
</linearGradient>
<path class="st0" d="M-62.4,235h437v390h-437V235z"/>
<linearGradient id="SVGID_2_" gradientUnits="userSpaceOnUse" x1="198.785" y1="603.3306" x2="152.103" y2="192.5064" gradientTransform="matrix(1 0 0 -1 0 794)">
	<stop  offset="0" style="stop-color:#0084FF"/>
	<stop  offset="1" style="stop-color:#016FD6;stop-opacity:0"/>
</linearGradient>
<path class="st1" d="M-18.3,166l434.2,49.3l-46.7,410.8L-65,576.8L-18.3,166z"/>
<g>
	<path class="st2" d="M104.9,347.7l18.3,39.3h-6.3l-4.1-9.4H94.4l-4.2,9.4h-6.3l18.3-39.3H104.9z M103.7,356.6l-7.1,16h14.1
		L103.7,356.6z"/>
	<path class="st2" d="M143.2,357.1c2.7,0,5.1,0.6,7.2,1.9c2.1,1.3,3.8,3.1,5,5.4s1.8,5.1,1.8,8.4c0,3-0.6,5.6-1.8,7.9
		c-1.2,2.3-2.9,4-4.9,5.3s-4.3,1.9-6.9,1.9c-2.2,0-4.2-0.6-5.9-1.8c-1.7-1.2-3.1-2.5-4.1-4.1v5h-4.8v-42.2h4.8v16.8
		c1.2-1.4,2.7-2.5,4.5-3.3C139.8,357.5,141.5,357.1,143.2,357.1z M142.3,361.9c-1.8,0-3.4,0.4-4.7,1.3c-1.4,0.8-2.7,2-3.9,3.5
		l-0.1,5.6c0,2.1,0.4,3.9,1.2,5.6c0.8,1.6,1.9,2.9,3.3,3.9c1.4,0.9,3,1.4,4.8,1.4c1.9,0,3.6-0.5,5-1.4s2.5-2.2,3.3-3.8
		c0.8-1.6,1.2-3.3,1.2-5.2c0-1.9-0.4-3.7-1.2-5.4c-0.8-1.7-1.9-3-3.4-4C146.2,362.4,144.4,361.9,142.3,361.9z"/>
	<path class="st2" d="M178.5,357.1c3,0,5.6,0.7,7.9,2.1c2.3,1.4,4.1,3.3,5.4,5.6c1.3,2.3,2,4.9,2,7.7c0,2.8-0.7,5.3-2,7.6
		c-1.3,2.3-3.1,4.2-5.4,5.6c-2.3,1.4-4.9,2.1-7.9,2.1s-5.6-0.7-7.9-2.1c-2.3-1.4-4.1-3.3-5.4-5.6c-1.3-2.3-2-4.9-2-7.6
		c0-2.8,0.7-5.3,2-7.7c1.3-2.3,3.1-4.2,5.4-5.6C172.9,357.8,175.5,357.1,178.5,357.1z M178.5,361.8c-2.1,0-3.9,0.5-5.4,1.5
		c-1.6,1-2.8,2.3-3.6,3.9c-0.8,1.6-1.3,3.4-1.3,5.3c0,1.9,0.4,3.6,1.3,5.2c0.8,1.6,2,2.9,3.6,3.9c1.6,1,3.4,1.5,5.4,1.5
		c2.1,0,3.9-0.5,5.5-1.5c1.5-1,2.7-2.3,3.6-3.9c0.8-1.6,1.3-3.4,1.3-5.2c0-1.9-0.4-3.7-1.3-5.3c-0.8-1.6-2-2.9-3.6-3.9
		C182.4,362.3,180.6,361.8,178.5,361.8z"/>
	<path class="st2" d="M225.7,357.7V375c0,2.6-0.5,4.8-1.6,6.7c-1.1,1.9-2.6,3.3-4.5,4.3s-4,1.5-6.3,1.5s-4.5-0.5-6.3-1.5
		s-3.4-2.5-4.5-4.3c-1.1-1.9-1.6-4.1-1.6-6.7v-17.3h5V375c0,2.5,0.8,4.5,2.3,5.8c1.5,1.3,3.2,2,5.2,2c2,0,3.7-0.7,5.2-2
		c1.5-1.3,2.3-3.3,2.3-5.8v-17.3H225.7z"/>
	<path class="st2" d="M242.8,349.3v8.4h8.6v4.5h-8.6v17.2c0,1.2,0.3,2.2,0.9,2.9c0.6,0.7,1.6,1.1,2.9,1.1c1.2,0,2.1-0.1,2.9-0.4
		c0.8-0.3,1.5-0.6,2.1-1v3.9c-0.8,0.6-1.6,1.1-2.5,1.5s-2.1,0.6-3.5,0.6c-2.5,0-4.4-0.8-5.7-2.3c-1.3-1.5-1.9-3.5-1.9-6v-17.4h-5.6
		v-1.4c1.9-0.9,3.5-2.3,4.8-4.2c1.3-2,2.4-4.4,3.4-7.3H242.8z"/>
</g>
<g>
	<path class="st2" d="M102.5,413v23.8c0,3.4-0.8,6.3-2.3,8.8c-1.5,2.4-3.5,4.3-6.1,5.6c-2.6,1.3-5.4,2-8.6,2s-6-0.7-8.6-2
		s-4.6-3.2-6.1-5.6c-1.5-2.4-2.3-5.4-2.3-8.8V413h8.1v23.4c0,3,0.8,5.3,2.4,6.8c1.6,1.5,3.8,2.2,6.4,2.2c2.6,0,4.7-0.7,6.4-2.2
		c1.6-1.5,2.5-3.7,2.5-6.7V413H102.5z"/>
	<path class="st2" d="M129.3,422c2.3,0,4.5,0.6,6.5,1.8c2,1.2,3.6,2.9,4.9,5.2s1.8,5.1,1.8,8.3s-0.6,6.1-1.8,8.5
		c-1.2,2.4-2.9,4.2-5,5.5c-2.1,1.3-4.4,1.9-6.9,1.9c-1.6,0-3.3-0.4-4.9-1.2c-1.6-0.8-3-1.8-4.1-3v17.4h-7.4v-43.7h7.4v5
		c0.9-1.6,2.1-3,3.8-4.1S127.1,422,129.3,422z M127.4,429.4c-1.3,0-2.6,0.3-3.8,1c-1.2,0.7-2.1,1.7-2.8,2.9c-0.7,1.3-1.1,2.8-1,4.5
		v4.3c1.1,1.1,2.2,2,3.4,2.7c1.2,0.7,2.6,1.1,4,1.1c1.5,0,2.9-0.4,4-1.2c1.1-0.8,2-1.9,2.6-3.2c0.6-1.3,0.9-2.7,0.9-4.2
		c0-2.2-0.7-4.1-2-5.6S129.7,429.4,127.4,429.4z"/>
	<path class="st2" d="M159.2,422c1.8,0,3.5,0.3,5.1,0.8c1.6,0.5,2.8,1.2,3.6,1.9v6.6c-0.9-0.6-2.1-1.2-3.4-1.8s-2.7-0.9-4.2-0.9
		c-1.4,0-2.5,0.3-3.3,0.9c-0.8,0.6-1.2,1.4-1.2,2.2c0,0.6,0.2,1.2,0.7,1.7s1.4,1,2.7,1.4l3.3,1.1c4.5,1.3,6.7,3.9,6.7,7.8
		c0,1.8-0.5,3.5-1.6,4.9c-1,1.4-2.4,2.5-4.2,3.4c-1.7,0.8-3.7,1.2-5.8,1.2c-2,0-3.9-0.3-5.8-0.9s-3.3-1.3-4.3-2.1v-6.5
		c0.7,0.5,1.6,1,2.7,1.5s2.1,0.8,3.3,1.1c1.1,0.3,2.2,0.4,3.1,0.4c1.5,0,2.6-0.3,3.4-0.8c0.8-0.5,1.2-1.3,1.2-2.3
		c0-0.7-0.3-1.3-1-1.8c-0.7-0.4-1.6-0.9-2.9-1.3l-3.6-1.3c-2.3-0.7-3.8-1.8-4.7-3.2c-0.9-1.4-1.3-3-1.3-4.9s0.5-3.5,1.4-4.9
		c1-1.4,2.3-2.5,4-3.3C155,422.4,157,422,159.2,422z"/>
	<path class="st2" d="M189,422c2.2,0,4,0.4,5.4,1.1s2.5,1.4,3.3,2.1v6.9c-1-0.7-2.2-1.4-3.4-1.9c-1.3-0.5-2.8-0.8-4.7-0.8
		c-1.5,0-2.9,0.4-4.1,1.1c-1.3,0.7-2.3,1.7-3,3c-0.7,1.3-1.1,2.7-1.1,4.3c0,2.4,0.8,4.4,2.3,6c1.6,1.6,3.5,2.3,5.9,2.3
		c1.8,0,3.4-0.2,4.7-0.7c1.3-0.5,2.4-1.1,3.4-1.8v6.8c-0.8,0.7-1.9,1.4-3.3,2s-3.2,1-5.4,1c-3,0-5.7-0.7-8-2.1
		c-2.3-1.4-4.2-3.3-5.5-5.7c-1.3-2.4-2-4.9-2-7.7c0-2.1,0.4-4,1.1-5.9s1.8-3.5,3.3-5s3.1-2.6,5-3.5C184.7,422.4,186.8,422,189,422z"
		/>
	<path class="st2" d="M216.1,422c1.6,0,3.2,0.4,4.9,1.1c1.6,0.7,3,1.7,4.1,3v-3.3h7.4v29.6h-7.4v-5c-0.9,1.6-2.1,3-3.8,4.1
		s-3.6,1.7-5.7,1.7c-2.4,0-4.6-0.6-6.6-1.8c-2-1.2-3.6-3-4.8-5.3c-1.2-2.3-1.8-5.1-1.8-8.4s0.6-6.1,1.8-8.4s2.9-4.1,5-5.4
		C211.2,422.6,213.5,422,216.1,422z M217.6,429.2c-1.6,0-2.9,0.4-4,1.2c-1.1,0.8-2,1.8-2.6,3.1c-0.6,1.3-0.9,2.7-0.9,4.2
		c0,2.2,0.7,4.1,2,5.7c1.3,1.6,3.1,2.3,5.4,2.3c1.3,0,2.6-0.4,3.7-1.1c1.2-0.7,2.1-1.7,2.8-3c0.7-1.3,1.1-2.8,1.1-4.6v-4.2
		c-1.1-1.1-2.2-2-3.4-2.7C220.4,429.6,219.1,429.2,217.6,429.2z"/>
	<path class="st2" d="M249.1,410.1v42.2h-7.4v-42.2H249.1z"/>
	<path class="st2" d="M271.1,422c2.9,0,5.4,0.6,7.5,1.9c2.1,1.3,3.7,3,4.8,5.2c1.1,2.2,1.7,4.8,1.7,7.6v3.2h-21.4
		c0.4,2,1.4,3.6,2.9,4.8c1.6,1.2,3.5,1.8,5.7,1.8c2.1,0,4.1-0.4,5.9-1.3c1.8-0.9,3.2-1.7,4.2-2.6l-0.1,6.9c-0.9,0.8-2.3,1.7-4.2,2.5
		c-1.9,0.8-3.9,1.3-6.1,1.3c-2.9,0-5.6-0.7-8-2s-4.3-3.1-5.7-5.4c-1.4-2.3-2.1-4.9-2.1-7.9c0-2.9,0.6-5.5,1.9-7.9
		c1.3-2.4,3.1-4.3,5.3-5.8C265.6,422.7,268.2,422,271.1,422z M270.9,428.5c-1.8,0-3.4,0.6-4.6,1.7c-1.3,1.1-2.1,2.7-2.6,4.6h14.2
		c-0.2-2.1-0.9-3.7-2.3-4.7C274.2,429,272.6,428.5,270.9,428.5z"/>
</g>
</svg>
