<svg id="visual" viewBox="0 0 900 600" width="900" height="600" xmlns="http://www.w3.org/2000/svg" xmlns:xlink="http://www.w3.org/1999/xlink" version="1.1"><path d="M0 410L21.5 404.3C43 398.7 86 387.3 128.8 386.7C171.7 386 214.3 396 257.2 402.7C300 409.3 343 412.7 385.8 412.8C428.7 413 471.3 410 514.2 417.8C557 425.7 600 444.3 642.8 455.8C685.7 467.3 728.3 471.7 771.2 466.2C814 460.7 857 445.3 878.5 437.7L900 430L900 601L878.5 601C857 601 814 601 771.2 601C728.3 601 685.7 601 642.8 601C600 601 557 601 514.2 601C471.3 601 428.7 601 385.8 601C343 601 300 601 257.2 601C214.3 601 171.7 601 128.8 601C86 601 43 601 21.5 601L0 601Z" fill="#0066FF" stroke-linecap="round" stroke-linejoin="miter"></path></svg>