<?xml version="1.0" standalone="no"?>
<svg xmlns:xlink="http://www.w3.org/1999/xlink" id="wave" style="transform:rotate(0deg); transition: 0.3s" viewBox="0 0 1440 290" version="1.1" xmlns="http://www.w3.org/2000/svg"><defs><linearGradient id="sw-gradient-0" x1="0" x2="0" y1="1" y2="0"><stop stop-color="rgba(0, 105, 203, 1)" offset="0%"/><stop stop-color="rgba(4, 134, 255, 1)" offset="100%"/></linearGradient></defs><path style="transform:translate(0, 0px); opacity:1" fill="url(#sw-gradient-0)" d="M0,0L21.8,29C43.6,58,87,116,131,145C174.5,174,218,174,262,149.8C305.5,126,349,77,393,82.2C436.4,87,480,145,524,149.8C567.3,155,611,106,655,106.3C698.2,106,742,155,785,169.2C829.1,184,873,164,916,130.5C960,97,1004,48,1047,29C1090.9,10,1135,19,1178,58C1221.8,97,1265,164,1309,188.5C1352.7,213,1396,193,1440,169.2C1483.6,145,1527,116,1571,96.7C1614.5,77,1658,68,1702,87C1745.5,106,1789,155,1833,169.2C1876.4,184,1920,164,1964,169.2C2007.3,174,2051,203,2095,178.8C2138.2,155,2182,77,2225,72.5C2269.1,68,2313,135,2356,178.8C2400,222,2444,242,2487,236.8C2530.9,232,2575,203,2618,203C2661.8,203,2705,232,2749,246.5C2792.7,261,2836,261,2880,222.3C2923.6,184,2967,106,3011,67.7C3054.5,29,3098,29,3120,29L3141.8,29L3141.8,290L3120,290C3098.2,290,3055,290,3011,290C2967.3,290,2924,290,2880,290C2836.4,290,2793,290,2749,290C2705.5,290,2662,290,2618,290C2574.5,290,2531,290,2487,290C2443.6,290,2400,290,2356,290C2312.7,290,2269,290,2225,290C2181.8,290,2138,290,2095,290C2050.9,290,2007,290,1964,290C1920,290,1876,290,1833,290C1789.1,290,1745,290,1702,290C1658.2,290,1615,290,1571,290C1527.3,290,1484,290,1440,290C1396.4,290,1353,290,1309,290C1265.5,290,1222,290,1178,290C1134.5,290,1091,290,1047,290C1003.6,290,960,290,916,290C872.7,290,829,290,785,290C741.8,290,698,290,655,290C610.9,290,567,290,524,290C480,290,436,290,393,290C349.1,290,305,290,262,290C218.2,290,175,290,131,290C87.3,290,44,290,22,290L0,290Z"/></svg>